<svg xmlns="http://www.w3.org/2000/svg" xmlns:xlink="http://www.w3.org/1999/xlink" width="1920" zoomAndPan="magnify" viewBox="0 0 1440 809.999993" height="1080" preserveAspectRatio="xMidYMid meet" version="1.0"><defs><g/></defs><g fill="#004aad" fill-opacity="0.4"><g transform="translate(356.089295, 448.440876)"><g><path d="M 40.390625 -19.140625 C 40.390625 -17.75 39.84375 -17.390625 38.265625 -17.390625 C 36.796875 -17.390625 31.28125 -17.390625 26.6875 -17.578125 C 27.96875 -14.71875 29.4375 -10.484375 29.90625 -7.546875 C 37.359375 -7.546875 42.875 -7.640625 46.546875 -9.203125 C 50.515625 -10.671875 51.609375 -13.34375 51.609375 -18.859375 L 51.609375 -52.8125 L 51.984375 -52.984375 C 57.59375 -34.59375 66.515625 -18.765625 79.671875 -9.84375 C 81.515625 -12.78125 85.015625 -17.109375 87.671875 -19.234375 C 81.421875 -22.71875 75.90625 -28.0625 71.390625 -34.40625 C 75.8125 -39.09375 81.140625 -45.453125 85.921875 -50.875 L 76.265625 -57.5 C 73.875 -52.90625 69.921875 -47.375 66.234375 -42.59375 C 63.65625 -47.5625 61.453125 -52.8125 59.796875 -58.328125 C 65.140625 -62.09375 70.015625 -66.421875 74.15625 -70.5625 L 66.796875 -76.265625 L 64.3125 -75.71875 L 14.90625 -75.71875 L 14.90625 -65.96875 L 54 -65.96875 C 49.765625 -62.375 44.984375 -58.96875 40.390625 -56.484375 Z M 30.8125 -56.03125 L 28.890625 -55.5625 L 6.15625 -55.5625 L 6.15625 -46 L 24.84375 -46 C 20.421875 -33.21875 12.421875 -23 2.671875 -17.203125 C 5.25 -15.640625 9.390625 -11.78125 11.125 -9.5625 C 23.1875 -17.578125 33.21875 -32.65625 37.71875 -53.078125 Z M 5.515625 5.515625 L 86.390625 5.515625 L 86.390625 -4.96875 L 5.515625 -4.96875 Z M 5.515625 5.515625 "/></g></g></g><g fill="#004aad" fill-opacity="0.4"><g transform="translate(448.081547, 448.440876)"><g><path d="M 35.234375 -61.828125 L 19.5 -61.828125 L 26.765625 -64.40625 C 25.671875 -67.796875 23.375 -73.140625 21.4375 -77.09375 L 12.421875 -74.421875 C 14.171875 -70.5625 16.1875 -65.40625 17.203125 -61.828125 L 4.234375 -61.828125 L 4.234375 -51.796875 L 35.234375 -51.796875 Z M 18.3125 -18.125 C 17.9375 -26.59375 16.5625 -38.734375 14.359375 -48.578125 L 6.25 -46.921875 C 8.1875 -37.265625 9.75 -24.5625 9.75 -16.375 Z M 35.703125 -18.21875 L 28.421875 -16.46875 C 30.171875 -25.203125 32.015625 -37.078125 33.390625 -47.203125 L 23.828125 -48.765625 C 23.28125 -38.265625 21.71875 -23.921875 20.140625 -14.625 C 13.796875 -13.15625 7.8125 -11.875 3.3125 -11.046875 L 5.421875 -0.28125 C 14.359375 -2.390625 25.859375 -5.34375 36.703125 -8.09375 Z M 88.5 -52.71875 L 88.5 -63.484375 L 58.78125 -63.484375 C 59.0625 -67.71875 59.25 -72.03125 59.4375 -76.453125 L 48.578125 -76.8125 C 48.390625 -72.3125 48.203125 -67.890625 48.03125 -63.484375 L 38.921875 -63.484375 L 38.921875 -52.71875 L 47.28125 -52.71875 C 45.453125 -30.546875 41.859375 -11.5 33.578125 0.921875 C 36.25 2.484375 41.484375 6.25 43.140625 7.90625 C 51.984375 -6.8125 55.9375 -28.0625 58.046875 -52.71875 Z M 89.796875 4.421875 C 88.5 -4.328125 84.734375 -17.109375 80.59375 -27.234375 L 71.578125 -23.828125 C 73.328125 -19.234375 75.078125 -13.796875 76.453125 -8.5625 L 64.21875 -7.171875 C 68.8125 -17.75 73.421875 -31 76.078125 -43.703125 L 65.046875 -45.90625 C 63.109375 -31.921875 58.234375 -16.46875 56.578125 -12.515625 C 54.921875 -8.5625 53.640625 -5.984375 51.703125 -5.34375 C 52.90625 -2.578125 54.5625 2.484375 55.109375 4.59375 C 57.21875 3.5 60.4375 2.671875 78.65625 0.28125 C 79.21875 3.125 79.671875 5.796875 79.953125 8 Z M 89.796875 4.421875 "/></g></g></g><g fill="#004aad" fill-opacity="0.4"><g transform="translate(540.073799, 448.440876)"><g><path d="M 31 -7.171875 C 24.65625 -3.953125 13.796875 -1.28125 4.046875 0.375 C 6.4375 2.203125 10.296875 6.15625 11.953125 8.28125 C 21.34375 5.984375 33.125 1.75 40.75 -2.765625 Z M 74.15625 -65.6875 C 73.59375 -59.609375 72.953125 -56.859375 72.125 -55.9375 C 71.484375 -55.203125 70.75 -55.015625 69.453125 -55.015625 C 68.265625 -55.015625 65.5 -55.109375 62.375 -55.390625 C 63.84375 -52.90625 64.859375 -49.21875 65.046875 -46.453125 C 69 -46.28125 72.59375 -46.375 74.796875 -46.640625 C 77.1875 -46.921875 79.125 -47.5625 80.78125 -49.59375 C 82.890625 -51.796875 83.8125 -57.78125 84.734375 -70.46875 C 84.921875 -71.671875 85.015625 -74.15625 85.015625 -74.15625 L 45.625 -74.15625 L 45.625 -65.6875 L 55.9375 -65.6875 C 54.5625 -60.078125 51.609375 -55.9375 43.796875 -53.078125 C 41.765625 -57.3125 38.546875 -62.1875 35.515625 -66.0625 L 27.234375 -63.203125 C 28.34375 -61.734375 29.4375 -60.171875 30.546875 -58.421875 L 21.4375 -56.296875 L 21.4375 -66.234375 C 28.796875 -66.96875 36.4375 -68.171875 42.59375 -69.734375 L 38 -77.921875 C 30.90625 -75.8125 20.140625 -74.15625 10.859375 -73.234375 L 10.953125 -73.046875 L 10.953125 -58.515625 C 10.953125 -54.5625 8.734375 -52.34375 6.90625 -51.34375 C 8.46875 -49.6875 10.671875 -45.90625 11.3125 -43.703125 C 13.4375 -44.984375 16.65625 -46.1875 34.78125 -50.6875 C 35.421875 -49.125 35.96875 -47.65625 36.34375 -46.453125 L 44.15625 -49.125 C 45.359375 -47.46875 46.375 -45.8125 46.921875 -44.4375 C 59.53125 -48.765625 63.84375 -55.75 65.59375 -65.6875 Z M 26.40625 -17.84375 L 66.328125 -17.84375 L 66.328125 -13.796875 L 26.40625 -13.796875 Z M 26.40625 -27.875 L 66.328125 -27.875 L 66.328125 -24.015625 L 26.40625 -24.015625 Z M 26.40625 -37.90625 L 66.328125 -37.90625 L 66.328125 -34.046875 L 26.40625 -34.046875 Z M 77.375 -7.359375 L 77.375 -44.4375 L 15.921875 -44.4375 L 15.921875 -7.359375 L 60.8125 -7.359375 L 54.375 -1.75 C 63.203125 1.203125 72.5 5.25 77.921875 7.90625 L 86.84375 1.84375 C 81.046875 -0.828125 71.109375 -4.421875 62.1875 -7.359375 Z M 77.375 -7.359375 "/></g></g></g><g fill="#004aad" fill-opacity="0.4"><g transform="translate(632.066051, 448.440876)"><g><path d="M 27.046875 -51.34375 L 65.6875 -51.34375 L 65.6875 -45.546875 L 27.046875 -45.546875 Z M 27.046875 -65.234375 L 65.6875 -65.234375 L 65.6875 -59.53125 L 27.046875 -59.53125 Z M 33.296875 -31.1875 C 34.6875 -33.03125 35.96875 -34.875 37.171875 -36.796875 L 76.8125 -36.796875 L 76.8125 -74.0625 L 16.28125 -74.0625 L 16.28125 -36.796875 L 24.375 -36.796875 C 18.765625 -29.25 10.671875 -22.625 2.296875 -18.21875 C 4.59375 -16.5625 8.734375 -12.515625 10.578125 -10.484375 C 15.359375 -13.4375 20.328125 -17.296875 24.84375 -21.625 L 32.84375 -21.625 C 27.046875 -13.4375 18.671875 -6.34375 9.65625 -1.84375 C 11.953125 -0.09375 16.015625 3.765625 17.75 5.984375 C 28.0625 -0.375 38.359375 -10.21875 45.171875 -21.625 L 53.078125 -21.625 C 48.9375 -11.953125 42.40625 -3.59375 34.6875 1.9375 C 37.171875 3.40625 41.484375 6.8125 43.328125 8.640625 C 51.796875 1.65625 59.609375 -9.296875 64.40625 -21.625 L 72.3125 -21.625 C 71.03125 -9.203125 69.1875 -3.59375 67.4375 -1.9375 C 66.515625 -1.015625 65.6875 -0.828125 64.03125 -0.828125 C 62.375 -0.828125 58.78125 -0.828125 54.921875 -1.203125 C 56.578125 1.375 57.6875 5.34375 57.78125 8.09375 C 62.375 8.1875 66.703125 8.1875 69.28125 7.90625 C 72.125 7.640625 74.515625 6.8125 76.734375 4.421875 C 79.765625 1.375 81.875 -6.984375 83.8125 -26.859375 C 84 -28.25 84.1875 -31.1875 84.1875 -31.1875 Z M 33.296875 -31.1875 "/></g></g></g><g fill="#004aad" fill-opacity="0.4"><g transform="translate(724.058303, 448.440876)"><g><path d="M 65.96875 -33.859375 L 32.9375 -33.859375 L 32.9375 -39.65625 L 65.96875 -39.65625 Z M 32.75 -18.765625 C 32.84375 -20.890625 32.9375 -22.8125 32.9375 -24.75 L 65.96875 -24.75 L 65.96875 -18.765625 Z M 86.9375 -56.578125 L 86.9375 -66.890625 L 42.046875 -66.890625 C 43.0625 -69.734375 44.0625 -72.59375 44.984375 -75.4375 L 33.671875 -78.015625 C 32.65625 -74.34375 31.46875 -70.65625 29.984375 -66.890625 L 5.34375 -66.890625 L 5.34375 -56.578125 L 25.296875 -56.578125 C 19.875 -46.375 12.515625 -37.078125 3.21875 -30.90625 C 5.34375 -28.890625 8.734375 -24.9375 10.390625 -22.453125 C 14.625 -25.390625 18.3125 -28.796875 21.796875 -32.46875 L 21.796875 -25.03125 C 21.796875 -16.46875 21.15625 -6.625 13.25 0.28125 C 15.546875 1.75 19.6875 6.34375 21.15625 8.640625 C 26.859375 3.859375 29.8125 -2.765625 31.375 -9.65625 L 65.96875 -9.65625 L 65.96875 -4.140625 C 65.96875 -2.859375 65.40625 -2.390625 63.84375 -2.296875 C 62.28125 -2.296875 56.953125 -2.296875 52.25 -2.578125 C 53.640625 0.375 55.109375 4.96875 55.5625 8 C 63.015625 8 68.265625 7.90625 71.859375 6.15625 C 75.625 4.515625 76.640625 1.5625 76.640625 -3.859375 L 76.640625 -49.3125 L 33.859375 -49.3125 C 35.234375 -51.703125 36.53125 -54.09375 37.53125 -56.578125 Z M 86.9375 -56.578125 "/></g></g></g><g fill="#004aad" fill-opacity="0.4"><g transform="translate(816.050577, 448.440876)"><g><path d="M 30.734375 -74.796875 L 29.15625 -74.34375 L 7.265625 -74.34375 L 7.265625 7.8125 L 16.84375 7.8125 L 16.84375 -64.578125 L 25.765625 -64.578125 C 24.28125 -58.515625 22.265625 -51.0625 20.515625 -45.453125 C 25.765625 -39.015625 26.953125 -33.125 26.953125 -28.609375 C 26.953125 -26.03125 26.40625 -24.015625 25.296875 -23.1875 C 24.65625 -22.625 23.734375 -22.453125 22.8125 -22.453125 C 21.796875 -22.359375 20.421875 -22.453125 18.859375 -22.546875 C 20.328125 -19.875 21.25 -15.828125 21.25 -13.15625 C 23.375 -13.0625 25.578125 -13.0625 27.234375 -13.34375 C 29.25 -13.703125 31 -14.265625 32.390625 -15.359375 C 35.328125 -17.578125 36.53125 -21.53125 36.53125 -27.421875 C 36.53125 -32.84375 35.421875 -39.375 29.90625 -46.546875 C 32.390625 -53.640625 35.421875 -62.921875 37.8125 -70.65625 Z M 51.25 -48.859375 L 71.484375 -48.859375 L 71.484375 -41.484375 L 51.25 -41.484375 Z M 71.484375 -64.859375 L 71.484375 -57.6875 L 51.25 -57.6875 L 51.25 -64.859375 Z M 80.3125 -31.09375 C 77.640625 -28.25 73.59375 -24.84375 69.828125 -21.984375 C 68.359375 -25.109375 67.15625 -28.421875 66.140625 -32.015625 L 82.0625 -32.015625 L 82.0625 -74.25 L 40.484375 -74.25 L 40.484375 -8.28125 C 40.484375 -3.953125 38.1875 -1.46875 36.25 -0.28125 C 37.8125 1.5625 40.109375 5.890625 40.9375 8.28125 C 43.140625 6.90625 46.546875 5.515625 64.484375 0.921875 C 64.125 -1.375 63.9375 -5.890625 64.03125 -9.015625 L 51.25 -6.15625 L 51.25 -32.015625 L 56.765625 -32.015625 C 61.09375 -13.984375 68.453125 0.1875 82.15625 7.734375 C 83.71875 4.6875 87.03125 0.375 89.421875 -1.75 C 83.359375 -4.515625 78.390625 -8.828125 74.515625 -14.078125 C 78.65625 -16.75 83.4375 -20.234375 87.40625 -23.375 Z M 80.3125 -31.09375 "/></g></g></g><g fill="#004aad" fill-opacity="0.4"><g transform="translate(908.042852, 448.440876)"><g><path d="M 43.796875 -75.71875 L 43.796875 -64.40625 L 58.515625 -64.40625 C 63.65625 -52.25 71.859375 -39.921875 82.34375 -31.921875 C 84.1875 -35.328125 88.140625 -40.578125 90.625 -42.96875 C 79.390625 -49.859375 70.9375 -62.84375 66.96875 -75.71875 Z M 27.234375 -75.90625 C 21.71875 -62.5625 12.046875 -49.21875 2.296875 -41.03125 C 5.0625 -38.828125 9.9375 -34.046875 12.046875 -31.640625 C 21.984375 -41.21875 32.75 -56.859375 39.46875 -71.9375 Z M 54.5625 -24.84375 C 57.40625 -20.796875 60.4375 -16.015625 63.390625 -11.40625 L 29.625 -9.203125 C 38.546875 -19.140625 47.375 -31.375 54.46875 -43.796875 L 41.671875 -49.21875 C 34.40625 -34.046875 22.90625 -18.3125 18.953125 -14.359375 C 15.359375 -10.296875 12.96875 -7.8125 9.84375 -6.984375 C 11.5 -3.6875 13.609375 2.390625 14.359375 4.78125 C 18.859375 3.03125 25.109375 2.484375 69.546875 -1.015625 C 71.484375 2.296875 73.140625 5.421875 74.34375 8 L 85.65625 2.03125 C 81.140625 -6.53125 72.6875 -19.59375 65.234375 -29.71875 Z M 54.5625 -24.84375 "/></g></g></g><g fill="#004aad" fill-opacity="0.4"><g transform="translate(1000.035126, 448.440876)"><g><path d="M 47.015625 -29.71875 L 47.015625 -17.390625 L 23.828125 -17.390625 L 23.828125 -29.71875 Z M 57.78125 -8 L 57.78125 -39.09375 L 13.15625 -39.09375 L 13.15625 -1.375 L 23.828125 -1.375 L 23.828125 -8 Z M 62.5625 -55.46875 L 8.46875 -55.46875 L 8.46875 -45.90625 L 62.5625 -45.90625 Z M 82.984375 -72.40625 L 7.546875 -72.40625 L 7.546875 -62.015625 L 71.765625 -62.015625 L 71.765625 -5.984375 C 71.765625 -4.421875 71.109375 -3.953125 69.453125 -3.953125 C 67.71875 -3.859375 61.640625 -3.765625 56.484375 -4.140625 C 58.046875 -0.921875 59.703125 4.515625 60.078125 7.734375 C 68.265625 7.8125 74.15625 7.546875 77.921875 5.609375 C 81.875 3.6875 82.984375 0.375 82.984375 -5.890625 Z M 82.984375 -72.40625 "/></g></g></g><g fill="#004aad" fill-opacity="1"><g transform="translate(352.023417, 444.374998)"><g><path d="M 40.390625 -19.140625 C 40.390625 -17.75 39.84375 -17.390625 38.265625 -17.390625 C 36.796875 -17.390625 31.28125 -17.390625 26.6875 -17.578125 C 27.96875 -14.71875 29.4375 -10.484375 29.90625 -7.546875 C 37.359375 -7.546875 42.875 -7.640625 46.546875 -9.203125 C 50.515625 -10.671875 51.609375 -13.34375 51.609375 -18.859375 L 51.609375 -52.8125 L 51.984375 -52.984375 C 57.59375 -34.59375 66.515625 -18.765625 79.671875 -9.84375 C 81.515625 -12.78125 85.015625 -17.109375 87.671875 -19.234375 C 81.421875 -22.71875 75.90625 -28.0625 71.390625 -34.40625 C 75.8125 -39.09375 81.140625 -45.453125 85.921875 -50.875 L 76.265625 -57.5 C 73.875 -52.90625 69.921875 -47.375 66.234375 -42.59375 C 63.65625 -47.5625 61.453125 -52.8125 59.796875 -58.328125 C 65.140625 -62.09375 70.015625 -66.421875 74.15625 -70.5625 L 66.796875 -76.265625 L 64.3125 -75.71875 L 14.90625 -75.71875 L 14.90625 -65.96875 L 54 -65.96875 C 49.765625 -62.375 44.984375 -58.96875 40.390625 -56.484375 Z M 30.8125 -56.03125 L 28.890625 -55.5625 L 6.15625 -55.5625 L 6.15625 -46 L 24.84375 -46 C 20.421875 -33.21875 12.421875 -23 2.671875 -17.203125 C 5.25 -15.640625 9.390625 -11.78125 11.125 -9.5625 C 23.1875 -17.578125 33.21875 -32.65625 37.71875 -53.078125 Z M 5.515625 5.515625 L 86.390625 5.515625 L 86.390625 -4.96875 L 5.515625 -4.96875 Z M 5.515625 5.515625 "/></g></g></g><g fill="#004aad" fill-opacity="1"><g transform="translate(444.015669, 444.374998)"><g><path d="M 35.234375 -61.828125 L 19.5 -61.828125 L 26.765625 -64.40625 C 25.671875 -67.796875 23.375 -73.140625 21.4375 -77.09375 L 12.421875 -74.421875 C 14.171875 -70.5625 16.1875 -65.40625 17.203125 -61.828125 L 4.234375 -61.828125 L 4.234375 -51.796875 L 35.234375 -51.796875 Z M 18.3125 -18.125 C 17.9375 -26.59375 16.5625 -38.734375 14.359375 -48.578125 L 6.25 -46.921875 C 8.1875 -37.265625 9.75 -24.5625 9.75 -16.375 Z M 35.703125 -18.21875 L 28.421875 -16.46875 C 30.171875 -25.203125 32.015625 -37.078125 33.390625 -47.203125 L 23.828125 -48.765625 C 23.28125 -38.265625 21.71875 -23.921875 20.140625 -14.625 C 13.796875 -13.15625 7.8125 -11.875 3.3125 -11.046875 L 5.421875 -0.28125 C 14.359375 -2.390625 25.859375 -5.34375 36.703125 -8.09375 Z M 88.5 -52.71875 L 88.5 -63.484375 L 58.78125 -63.484375 C 59.0625 -67.71875 59.25 -72.03125 59.4375 -76.453125 L 48.578125 -76.8125 C 48.390625 -72.3125 48.203125 -67.890625 48.03125 -63.484375 L 38.921875 -63.484375 L 38.921875 -52.71875 L 47.28125 -52.71875 C 45.453125 -30.546875 41.859375 -11.5 33.578125 0.921875 C 36.25 2.484375 41.484375 6.25 43.140625 7.90625 C 51.984375 -6.8125 55.9375 -28.0625 58.046875 -52.71875 Z M 89.796875 4.421875 C 88.5 -4.328125 84.734375 -17.109375 80.59375 -27.234375 L 71.578125 -23.828125 C 73.328125 -19.234375 75.078125 -13.796875 76.453125 -8.5625 L 64.21875 -7.171875 C 68.8125 -17.75 73.421875 -31 76.078125 -43.703125 L 65.046875 -45.90625 C 63.109375 -31.921875 58.234375 -16.46875 56.578125 -12.515625 C 54.921875 -8.5625 53.640625 -5.984375 51.703125 -5.34375 C 52.90625 -2.578125 54.5625 2.484375 55.109375 4.59375 C 57.21875 3.5 60.4375 2.671875 78.65625 0.28125 C 79.21875 3.125 79.671875 5.796875 79.953125 8 Z M 89.796875 4.421875 "/></g></g></g><g fill="#004aad" fill-opacity="1"><g transform="translate(536.007921, 444.374998)"><g><path d="M 31 -7.171875 C 24.65625 -3.953125 13.796875 -1.28125 4.046875 0.375 C 6.4375 2.203125 10.296875 6.15625 11.953125 8.28125 C 21.34375 5.984375 33.125 1.75 40.75 -2.765625 Z M 74.15625 -65.6875 C 73.59375 -59.609375 72.953125 -56.859375 72.125 -55.9375 C 71.484375 -55.203125 70.75 -55.015625 69.453125 -55.015625 C 68.265625 -55.015625 65.5 -55.109375 62.375 -55.390625 C 63.84375 -52.90625 64.859375 -49.21875 65.046875 -46.453125 C 69 -46.28125 72.59375 -46.375 74.796875 -46.640625 C 77.1875 -46.921875 79.125 -47.5625 80.78125 -49.59375 C 82.890625 -51.796875 83.8125 -57.78125 84.734375 -70.46875 C 84.921875 -71.671875 85.015625 -74.15625 85.015625 -74.15625 L 45.625 -74.15625 L 45.625 -65.6875 L 55.9375 -65.6875 C 54.5625 -60.078125 51.609375 -55.9375 43.796875 -53.078125 C 41.765625 -57.3125 38.546875 -62.1875 35.515625 -66.0625 L 27.234375 -63.203125 C 28.34375 -61.734375 29.4375 -60.171875 30.546875 -58.421875 L 21.4375 -56.296875 L 21.4375 -66.234375 C 28.796875 -66.96875 36.4375 -68.171875 42.59375 -69.734375 L 38 -77.921875 C 30.90625 -75.8125 20.140625 -74.15625 10.859375 -73.234375 L 10.953125 -73.046875 L 10.953125 -58.515625 C 10.953125 -54.5625 8.734375 -52.34375 6.90625 -51.34375 C 8.46875 -49.6875 10.671875 -45.90625 11.3125 -43.703125 C 13.4375 -44.984375 16.65625 -46.1875 34.78125 -50.6875 C 35.421875 -49.125 35.96875 -47.65625 36.34375 -46.453125 L 44.15625 -49.125 C 45.359375 -47.46875 46.375 -45.8125 46.921875 -44.4375 C 59.53125 -48.765625 63.84375 -55.75 65.59375 -65.6875 Z M 26.40625 -17.84375 L 66.328125 -17.84375 L 66.328125 -13.796875 L 26.40625 -13.796875 Z M 26.40625 -27.875 L 66.328125 -27.875 L 66.328125 -24.015625 L 26.40625 -24.015625 Z M 26.40625 -37.90625 L 66.328125 -37.90625 L 66.328125 -34.046875 L 26.40625 -34.046875 Z M 77.375 -7.359375 L 77.375 -44.4375 L 15.921875 -44.4375 L 15.921875 -7.359375 L 60.8125 -7.359375 L 54.375 -1.75 C 63.203125 1.203125 72.5 5.25 77.921875 7.90625 L 86.84375 1.84375 C 81.046875 -0.828125 71.109375 -4.421875 62.1875 -7.359375 Z M 77.375 -7.359375 "/></g></g></g><g fill="#004aad" fill-opacity="1"><g transform="translate(628.000173, 444.374998)"><g><path d="M 27.046875 -51.34375 L 65.6875 -51.34375 L 65.6875 -45.546875 L 27.046875 -45.546875 Z M 27.046875 -65.234375 L 65.6875 -65.234375 L 65.6875 -59.53125 L 27.046875 -59.53125 Z M 33.296875 -31.1875 C 34.6875 -33.03125 35.96875 -34.875 37.171875 -36.796875 L 76.8125 -36.796875 L 76.8125 -74.0625 L 16.28125 -74.0625 L 16.28125 -36.796875 L 24.375 -36.796875 C 18.765625 -29.25 10.671875 -22.625 2.296875 -18.21875 C 4.59375 -16.5625 8.734375 -12.515625 10.578125 -10.484375 C 15.359375 -13.4375 20.328125 -17.296875 24.84375 -21.625 L 32.84375 -21.625 C 27.046875 -13.4375 18.671875 -6.34375 9.65625 -1.84375 C 11.953125 -0.09375 16.015625 3.765625 17.75 5.984375 C 28.0625 -0.375 38.359375 -10.21875 45.171875 -21.625 L 53.078125 -21.625 C 48.9375 -11.953125 42.40625 -3.59375 34.6875 1.9375 C 37.171875 3.40625 41.484375 6.8125 43.328125 8.640625 C 51.796875 1.65625 59.609375 -9.296875 64.40625 -21.625 L 72.3125 -21.625 C 71.03125 -9.203125 69.1875 -3.59375 67.4375 -1.9375 C 66.515625 -1.015625 65.6875 -0.828125 64.03125 -0.828125 C 62.375 -0.828125 58.78125 -0.828125 54.921875 -1.203125 C 56.578125 1.375 57.6875 5.34375 57.78125 8.09375 C 62.375 8.1875 66.703125 8.1875 69.28125 7.90625 C 72.125 7.640625 74.515625 6.8125 76.734375 4.421875 C 79.765625 1.375 81.875 -6.984375 83.8125 -26.859375 C 84 -28.25 84.1875 -31.1875 84.1875 -31.1875 Z M 33.296875 -31.1875 "/></g></g></g><g fill="#004aad" fill-opacity="1"><g transform="translate(719.992425, 444.374998)"><g><path d="M 65.96875 -33.859375 L 32.9375 -33.859375 L 32.9375 -39.65625 L 65.96875 -39.65625 Z M 32.75 -18.765625 C 32.84375 -20.890625 32.9375 -22.8125 32.9375 -24.75 L 65.96875 -24.75 L 65.96875 -18.765625 Z M 86.9375 -56.578125 L 86.9375 -66.890625 L 42.046875 -66.890625 C 43.0625 -69.734375 44.0625 -72.59375 44.984375 -75.4375 L 33.671875 -78.015625 C 32.65625 -74.34375 31.46875 -70.65625 29.984375 -66.890625 L 5.34375 -66.890625 L 5.34375 -56.578125 L 25.296875 -56.578125 C 19.875 -46.375 12.515625 -37.078125 3.21875 -30.90625 C 5.34375 -28.890625 8.734375 -24.9375 10.390625 -22.453125 C 14.625 -25.390625 18.3125 -28.796875 21.796875 -32.46875 L 21.796875 -25.03125 C 21.796875 -16.46875 21.15625 -6.625 13.25 0.28125 C 15.546875 1.75 19.6875 6.34375 21.15625 8.640625 C 26.859375 3.859375 29.8125 -2.765625 31.375 -9.65625 L 65.96875 -9.65625 L 65.96875 -4.140625 C 65.96875 -2.859375 65.40625 -2.390625 63.84375 -2.296875 C 62.28125 -2.296875 56.953125 -2.296875 52.25 -2.578125 C 53.640625 0.375 55.109375 4.96875 55.5625 8 C 63.015625 8 68.265625 7.90625 71.859375 6.15625 C 75.625 4.515625 76.640625 1.5625 76.640625 -3.859375 L 76.640625 -49.3125 L 33.859375 -49.3125 C 35.234375 -51.703125 36.53125 -54.09375 37.53125 -56.578125 Z M 86.9375 -56.578125 "/></g></g></g><g fill="#004aad" fill-opacity="1"><g transform="translate(811.984699, 444.374998)"><g><path d="M 30.734375 -74.796875 L 29.15625 -74.34375 L 7.265625 -74.34375 L 7.265625 7.8125 L 16.84375 7.8125 L 16.84375 -64.578125 L 25.765625 -64.578125 C 24.28125 -58.515625 22.265625 -51.0625 20.515625 -45.453125 C 25.765625 -39.015625 26.953125 -33.125 26.953125 -28.609375 C 26.953125 -26.03125 26.40625 -24.015625 25.296875 -23.1875 C 24.65625 -22.625 23.734375 -22.453125 22.8125 -22.453125 C 21.796875 -22.359375 20.421875 -22.453125 18.859375 -22.546875 C 20.328125 -19.875 21.25 -15.828125 21.25 -13.15625 C 23.375 -13.0625 25.578125 -13.0625 27.234375 -13.34375 C 29.25 -13.703125 31 -14.265625 32.390625 -15.359375 C 35.328125 -17.578125 36.53125 -21.53125 36.53125 -27.421875 C 36.53125 -32.84375 35.421875 -39.375 29.90625 -46.546875 C 32.390625 -53.640625 35.421875 -62.921875 37.8125 -70.65625 Z M 51.25 -48.859375 L 71.484375 -48.859375 L 71.484375 -41.484375 L 51.25 -41.484375 Z M 71.484375 -64.859375 L 71.484375 -57.6875 L 51.25 -57.6875 L 51.25 -64.859375 Z M 80.3125 -31.09375 C 77.640625 -28.25 73.59375 -24.84375 69.828125 -21.984375 C 68.359375 -25.109375 67.15625 -28.421875 66.140625 -32.015625 L 82.0625 -32.015625 L 82.0625 -74.25 L 40.484375 -74.25 L 40.484375 -8.28125 C 40.484375 -3.953125 38.1875 -1.46875 36.25 -0.28125 C 37.8125 1.5625 40.109375 5.890625 40.9375 8.28125 C 43.140625 6.90625 46.546875 5.515625 64.484375 0.921875 C 64.125 -1.375 63.9375 -5.890625 64.03125 -9.015625 L 51.25 -6.15625 L 51.25 -32.015625 L 56.765625 -32.015625 C 61.09375 -13.984375 68.453125 0.1875 82.15625 7.734375 C 83.71875 4.6875 87.03125 0.375 89.421875 -1.75 C 83.359375 -4.515625 78.390625 -8.828125 74.515625 -14.078125 C 78.65625 -16.75 83.4375 -20.234375 87.40625 -23.375 Z M 80.3125 -31.09375 "/></g></g></g><g fill="#004aad" fill-opacity="1"><g transform="translate(903.976973, 444.374998)"><g><path d="M 43.796875 -75.71875 L 43.796875 -64.40625 L 58.515625 -64.40625 C 63.65625 -52.25 71.859375 -39.921875 82.34375 -31.921875 C 84.1875 -35.328125 88.140625 -40.578125 90.625 -42.96875 C 79.390625 -49.859375 70.9375 -62.84375 66.96875 -75.71875 Z M 27.234375 -75.90625 C 21.71875 -62.5625 12.046875 -49.21875 2.296875 -41.03125 C 5.0625 -38.828125 9.9375 -34.046875 12.046875 -31.640625 C 21.984375 -41.21875 32.75 -56.859375 39.46875 -71.9375 Z M 54.5625 -24.84375 C 57.40625 -20.796875 60.4375 -16.015625 63.390625 -11.40625 L 29.625 -9.203125 C 38.546875 -19.140625 47.375 -31.375 54.46875 -43.796875 L 41.671875 -49.21875 C 34.40625 -34.046875 22.90625 -18.3125 18.953125 -14.359375 C 15.359375 -10.296875 12.96875 -7.8125 9.84375 -6.984375 C 11.5 -3.6875 13.609375 2.390625 14.359375 4.78125 C 18.859375 3.03125 25.109375 2.484375 69.546875 -1.015625 C 71.484375 2.296875 73.140625 5.421875 74.34375 8 L 85.65625 2.03125 C 81.140625 -6.53125 72.6875 -19.59375 65.234375 -29.71875 Z M 54.5625 -24.84375 "/></g></g></g><g fill="#004aad" fill-opacity="1"><g transform="translate(995.969248, 444.374998)"><g><path d="M 47.015625 -29.71875 L 47.015625 -17.390625 L 23.828125 -17.390625 L 23.828125 -29.71875 Z M 57.78125 -8 L 57.78125 -39.09375 L 13.15625 -39.09375 L 13.15625 -1.375 L 23.828125 -1.375 L 23.828125 -8 Z M 62.5625 -55.46875 L 8.46875 -55.46875 L 8.46875 -45.90625 L 62.5625 -45.90625 Z M 82.984375 -72.40625 L 7.546875 -72.40625 L 7.546875 -62.015625 L 71.765625 -62.015625 L 71.765625 -5.984375 C 71.765625 -4.421875 71.109375 -3.953125 69.453125 -3.953125 C 67.71875 -3.859375 61.640625 -3.765625 56.484375 -4.140625 C 58.046875 -0.921875 59.703125 4.515625 60.078125 7.734375 C 68.265625 7.8125 74.15625 7.546875 77.921875 5.609375 C 81.875 3.6875 82.984375 0.375 82.984375 -5.890625 Z M 82.984375 -72.40625 "/></g></g></g></svg>